<svg width="24" height="24" viewBox="0 0 24 24" fill="none" xmlns="http://www.w3.org/2000/svg">
<g clip-path="url(#clip0_1_19)">
<path d="M11.9536 0.328125C5.35266 0.328125 0 5.67984 0 12.2817C0 17.5632 3.42506 22.0439 8.17463 23.6245C8.772 23.7352 8.99137 23.3652 8.99137 23.0495C8.99137 22.7645 8.98022 21.8228 8.97516 20.8239C5.64956 21.547 4.94784 19.4136 4.94784 19.4136C4.40409 18.0319 3.62063 17.6646 3.62063 17.6646C2.53613 16.9226 3.70238 16.9378 3.70238 16.9378C4.90275 17.0222 5.53481 18.1697 5.53481 18.1697C6.60094 19.9972 8.33119 19.4688 9.01331 19.1634C9.12056 18.3908 9.43041 17.8635 9.77222 17.565C7.11722 17.2627 4.32609 16.2377 4.32609 11.6574C4.32609 10.3524 4.79306 9.28603 5.55778 8.44894C5.43366 8.14781 5.02453 6.93206 5.67356 5.28553C5.67356 5.28553 6.67734 4.96425 8.96166 6.51084C9.9151 6.24591 10.9377 6.11316 11.9536 6.10866C12.9695 6.11316 13.9928 6.24591 14.9482 6.51084C17.2298 4.96425 18.2321 5.28553 18.2321 5.28553C18.8828 6.93206 18.4734 8.14781 18.3493 8.44894C19.1157 9.28603 19.5795 10.3523 19.5795 11.6574C19.5795 16.2486 16.7831 17.2596 14.1214 17.5554C14.5501 17.9264 14.9321 18.6539 14.9321 19.7691C14.9321 21.3684 14.9183 22.6557 14.9183 23.0495C14.9183 23.3676 15.1334 23.7403 15.7394 23.6229C20.4863 22.0405 23.9071 17.5614 23.9071 12.2817C23.9071 5.67984 18.5552 0.328125 11.9536 0.328125Z" fill="#161614"/>
<path d="M4.47702 17.3563C4.45077 17.4157 4.35721 17.4335 4.27218 17.3928C4.18546 17.3538 4.13671 17.2728 4.16483 17.2132C4.19062 17.152 4.28418 17.135 4.37071 17.176C4.45762 17.215 4.50712 17.2967 4.47702 17.3563ZM5.06502 17.881C5.00802 17.9338 4.89655 17.9093 4.8209 17.8257C4.74271 17.7424 4.72808 17.631 4.78593 17.5773C4.84471 17.5245 4.9528 17.5492 5.03118 17.6326C5.10937 17.7169 5.12455 17.8276 5.06493 17.881M5.46843 18.5522C5.39512 18.6031 5.2753 18.5554 5.20133 18.4491C5.12812 18.3429 5.12812 18.2154 5.20293 18.1643C5.27718 18.1132 5.39512 18.1591 5.47012 18.2646C5.54324 18.3727 5.54324 18.5002 5.46833 18.5523M6.15055 19.3297C6.08502 19.4019 5.94552 19.3825 5.84333 19.2839C5.7389 19.1875 5.70974 19.0508 5.77546 18.9785C5.84174 18.9061 5.98208 18.9265 6.08502 19.0242C6.1888 19.1204 6.2204 19.2582 6.15055 19.3297ZM7.03218 19.5922C7.0034 19.6857 6.86896 19.7283 6.73358 19.6885C6.5984 19.6476 6.5099 19.5379 6.53718 19.4433C6.5653 19.3491 6.7003 19.3047 6.83671 19.3473C6.97171 19.3881 7.0603 19.4969 7.03218 19.5922ZM8.03568 19.7035C8.03905 19.8021 7.92421 19.8838 7.78208 19.8856C7.63912 19.8887 7.52352 19.8089 7.52202 19.712C7.52202 19.6124 7.63424 19.5314 7.77712 19.5291C7.91924 19.5263 8.03568 19.6055 8.03568 19.7035ZM9.02137 19.6657C9.03843 19.7619 8.93962 19.8607 8.79852 19.8869C8.65977 19.9122 8.53133 19.8529 8.51362 19.7575C8.49637 19.6589 8.59705 19.5602 8.73552 19.5346C8.8769 19.51 9.00337 19.5679 9.02137 19.6657Z" fill="#161614"/>
</g>
<defs>
<clipPath id="clip0_1_19">
<rect width="24" height="24" fill="white"/>
</clipPath>
</defs>
</svg>
